<?xml version="1.0" standalone="no"?>
<!DOCTYPE svg PUBLIC "-//W3C//DTD SVG 20010904//EN"
 "http://www.w3.org/TR/2001/REC-SVG-20010904/DTD/svg10.dtd">
<svg version="1.0" xmlns="http://www.w3.org/2000/svg"
 width="512.000000pt" height="512.000000pt" viewBox="0 0 512.000000 512.000000"
 preserveAspectRatio="xMidYMid meet">
<metadata>
Created by potrace 1.14, written by Peter Selinger 2001-2017
</metadata>
<g transform="translate(0.000000,512.000000) scale(0.100000,-0.100000)"
fill="#000000" stroke="none">
<path d="M2160 3661 c-19 -10 -44 -33 -54 -51 -19 -32 -20 -63 -20 -989 -1
-1063 -5 -1008 66 -1051 31 -19 50 -20 399 -20 228 0 377 4 396 10 66 23 98
123 58 183 -34 53 -59 57 -364 57 l-281 0 0 888 c0 841 -1 889 -18 922 -34 64
-115 87 -182 51z"/>
<path d="M1529 2976 c-19 -7 -151 -79 -294 -161 -237 -135 -313 -178 -370
-209 -11 -6 -22 -13 -25 -16 -3 -3 -14 -10 -25 -16 -150 -82 -329 -186 -348
-202 -23 -20 -40 -87 -32 -129 10 -54 47 -82 275 -209 20 -11 64 -37 96 -56
33 -20 79 -47 104 -61 25 -13 133 -76 241 -139 108 -63 203 -118 210 -121 8
-4 32 -18 54 -32 64 -40 144 -75 170 -75 14 0 38 12 55 28 52 46 67 121 35
174 -8 13 -209 138 -355 220 -27 15 -507 296 -517 302 -2 1 638 371 756 437
94 52 110 64 124 94 20 42 13 82 -20 123 -38 46 -87 64 -134 48z"/>
<path d="M3503 2976 c-46 -16 -86 -74 -85 -126 1 -69 16 -83 197 -185 22 -13
130 -76 240 -140 110 -65 258 -151 328 -193 113 -66 126 -76 110 -86 -16 -11
-341 -196 -478 -272 -27 -15 -83 -47 -123 -71 -41 -24 -75 -43 -77 -43 -14 0
-178 -106 -190 -123 -30 -43 -14 -107 40 -157 36 -34 103 -33 165 2 188 107
238 135 251 141 8 4 30 17 49 28 19 12 57 33 83 48 26 14 56 31 65 36 34 20
128 73 173 98 214 117 378 215 401 240 30 32 37 64 26 116 -8 43 -46 81 -117
121 -31 17 -72 40 -91 52 -19 11 -105 60 -190 109 -85 50 -162 94 -170 99 -8
5 -51 30 -95 56 -44 25 -93 54 -110 64 -318 187 -353 203 -402 186z"/>
</g>
</svg>
